<mxfile host="app.diagrams.net" modified="2023-06-19T15:36:34.287Z" agent="Mozilla/5.0 (Windows NT 10.0; Win64; x64; rv:109.0) Gecko/20100101 Firefox/114.0" etag="s7QF0Q-bJjD3oYw6Lb8H" version="21.5.0" type="github">
  <diagram name="Page-1" id="WHsNHxmfgeRFKXF7D9q8">
    <mxGraphModel dx="2074" dy="1134" grid="1" gridSize="10" guides="1" tooltips="1" connect="1" arrows="1" fold="1" page="1" pageScale="1" pageWidth="827" pageHeight="1169" math="0" shadow="0">
      <root>
        <mxCell id="0" />
        <mxCell id="1" parent="0" />
        <mxCell id="FewOXKuHpZ_9Y-vOY0hz-4" style="edgeStyle=orthogonalEdgeStyle;rounded=0;orthogonalLoop=1;jettySize=auto;html=1;endArrow=none;endFill=0;" edge="1" parent="1" source="FewOXKuHpZ_9Y-vOY0hz-2" target="FewOXKuHpZ_9Y-vOY0hz-3">
          <mxGeometry relative="1" as="geometry" />
        </mxCell>
        <mxCell id="FewOXKuHpZ_9Y-vOY0hz-2" value="Mega" style="rounded=0;whiteSpace=wrap;html=1;" vertex="1" parent="1">
          <mxGeometry x="150" y="90" width="270" height="170" as="geometry" />
        </mxCell>
        <mxCell id="FewOXKuHpZ_9Y-vOY0hz-6" style="edgeStyle=orthogonalEdgeStyle;rounded=0;orthogonalLoop=1;jettySize=auto;html=1;dashed=1;" edge="1" parent="1" source="FewOXKuHpZ_9Y-vOY0hz-3" target="FewOXKuHpZ_9Y-vOY0hz-5">
          <mxGeometry relative="1" as="geometry" />
        </mxCell>
        <mxCell id="FewOXKuHpZ_9Y-vOY0hz-3" value="IR" style="whiteSpace=wrap;html=1;aspect=fixed;" vertex="1" parent="1">
          <mxGeometry x="110" y="350" width="80" height="80" as="geometry" />
        </mxCell>
        <mxCell id="FewOXKuHpZ_9Y-vOY0hz-5" value="AC" style="rounded=0;whiteSpace=wrap;html=1;" vertex="1" parent="1">
          <mxGeometry x="350" y="560" width="400" height="140" as="geometry" />
        </mxCell>
        <mxCell id="FewOXKuHpZ_9Y-vOY0hz-8" style="edgeStyle=orthogonalEdgeStyle;rounded=0;orthogonalLoop=1;jettySize=auto;html=1;endArrow=none;endFill=0;" edge="1" parent="1" source="FewOXKuHpZ_9Y-vOY0hz-7" target="FewOXKuHpZ_9Y-vOY0hz-2">
          <mxGeometry relative="1" as="geometry" />
        </mxCell>
        <mxCell id="FewOXKuHpZ_9Y-vOY0hz-7" value="TSOP" style="whiteSpace=wrap;html=1;aspect=fixed;" vertex="1" parent="1">
          <mxGeometry x="540" y="90" width="80" height="80" as="geometry" />
        </mxCell>
      </root>
    </mxGraphModel>
  </diagram>
</mxfile>
